<?xml version="1.0" encoding="utf-8"?>
<!-- Generator: Adobe Illustrator 18.0.0, SVG Export Plug-In . SVG Version: 6.00 Build 0)  -->
<!DOCTYPE svg PUBLIC "-//W3C//DTD SVG 1.1//EN" "http://www.w3.org/Graphics/SVG/1.1/DTD/svg11.dtd">
<svg version="1.1" id="Layer_1" xmlns="http://www.w3.org/2000/svg" xmlns:xlink="http://www.w3.org/1999/xlink" x="0px" y="0px"
	 viewBox="0 0 3564 2005" enable-background="new 0 0 3564 2005" xml:space="preserve">
<image overflow="visible" width="3564" height="2005" xlink:href="earth-large.jpg" >
</image>
<path display="none" fill="none" stroke="#FFFFFF" stroke-width="4" stroke-miterlimit="10" d="M1640.7,876.6
	c0,0,188.6,48,176.5,73.1c-59.1,122-165.8,143.9-165.8,143.9s-42.4-287.8,0-215.1c410.7,704,1257.7,332.5,1257.7,332.5"/>
<polygon fill="#00FBE6" points="3330,1213 2909.2,1213 2827,1135 2827,879 3172,879.1 3330,1032.4 "/>
<g>
	<polygon points="2887,938 2948,938 2948,1155.1 2887,1094.1 	"/>
	<polygon points="3137,938.1 3198,998.2 3198,1094 3270,1094 3270,1155 3137,1155 	"/>
	<path d="M3014.9,938c-39.3,0-59.9,19.9-59.9,59.3c0,0.5,0,0.7,0,1.7h57.9h101.8h16.3v-61C3131,938,3025.5,938,3014.9,938z"/>
	<g>
		<path d="M3015.2,1075c6.4,0,57.8,0,57.8,0v12h58c0-6,0-9.2,0-11.1c0-39.3-17.5-60.9-56.8-60.9c-8.6,0-61.2,0-61.2,0v-9h-58
			c0,4,0,7.3,0,10.9C2955,1056.3,2975.9,1075,3015.2,1075z"/>
		<path d="M2955,1094v61c0,0,89.1,0,119.2,0c39,0,56.8-20.1,56.8-59.3c0-0.6,0-1.7,0-1.7H2955z"/>
	</g>
</g>
<path fill="none" stroke="#FFFFFF" stroke-width="4" stroke-miterlimit="10" d="M2826.6,1186c0,0-792,356-1208-308
	c0,0,64,1,162,54.5l-134,97.5c0,0-17.3-109.2-17.3-146"/>
</svg>
