<?xml version="1.0" encoding="utf-8"?>
<!-- Generator: Adobe Illustrator 18.0.0, SVG Export Plug-In . SVG Version: 6.00 Build 0)  -->
<!DOCTYPE svg PUBLIC "-//W3C//DTD SVG 1.1//EN" "http://www.w3.org/Graphics/SVG/1.1/DTD/svg11.dtd">
<svg version="1.1" id="Layer_1" xmlns="http://www.w3.org/2000/svg" xmlns:xlink="http://www.w3.org/1999/xlink" x="0px" y="0px"
	 viewBox="0 0 3564 2005" enable-background="new 0 0 3564 2005" xml:space="preserve">
<image overflow="visible" width="3564" height="2005" xlink:href="img/earth-large.jpg" >
</image>
<!-- <path fill="none" stroke="#FFFFFF" stroke-width="4" stroke-dashoffset="600" stroke-dasharray="600" stroke-miterlimit="10" d="M1640.7,876.6c0,0,188.6,48,176.5,73.1
	c-59.1,122-165.8,143.9-165.8,143.9s-42.4-287.8,0-215.1c410.7,704,1257.7,332.5,1257.7,332.5"> -->
	<path fill="none" stroke="#FFFFFF" stroke-width="4" stroke-dasharray="5000" stroke-miterlimit="10" d="M2826.6,1186c0,0-792,356-1208-308
	c0,0,64,1,162,54.5l-134,97.5c0,0-17.3-109.2-17.3-146">

	<animate attributeType="XML" attributeName="stroke-dashoffset" from="5000" to="0" dur="4s" repeatCount="1" fill="freeze"/>

</path>

<polygon fill="#00FBE6" points="3412,1212 2991.2,1212 2909,1134 2909,878 3254,878.1 3412,1031.4 "/>
<g>
	<polygon points="2969,937 3030,937 3030,1154.1 2969,1093.1 	"/>
	<polygon points="3219,937.1 3280,997.2 3280,1093 3352,1093 3352,1154 3219,1154 	"/>
	<path d="M3096.9,937c-39.3,0-59.9,19.9-59.9,59.3c0,0.5,0,0.7,0,1.7h57.9h101.8h16.3v-61C3213,937,3107.5,937,3096.9,937z"/>
	<g>
		<path d="M3097.2,1074c6.4,0,57.8,0,57.8,0v12h58c0-6,0-9.2,0-11.1c0-39.3-17.5-60.9-56.8-60.9c-8.6,0-61.2,0-61.2,0v-9h-58
			c0,4,0,7.3,0,10.9C3037,1055.3,3057.9,1074,3097.2,1074z"/>
		<path d="M3037,1093v61c0,0,89.1,0,119.2,0c39,0,56.8-20.1,56.8-59.3c0-0.6,0-1.7,0-1.7H3037z"/>
	</g>
</g>
</svg>
