<svg class="thanks" version="1.1" id="Layer_1" xmlns="http://www.w3.org/2000/svg" xmlns:xlink="http://www.w3.org/1999/xlink" x="0px" y="0px"
	 viewBox="0 0 413.3 209.7" enable-background="new 0 0 413.3 209.7" xml:space="preserve">
<path class="t__stick" fill="none" stroke="#000000" stroke-miterlimit="10" d="M35.7,118.7c0,0-0.3,20,10,20s22.2-14.5,23.7-17.3
	c6-11.1,8.3-14.7,11-20.3c5.2-10.8,6.3-24.2,14-34c6.8-8.6,13.3-16.3,13.3-16.3"/>
<!-- <path fill="none" stroke="#000000" stroke-miterlimit="10" d="M0,209.7"/> -->
<path class="hanks" fill="none" stroke="#000000" stroke-miterlimit="10" d="M83.3,129c0,0,46.3-26.7,87.3-96.7s-17.1-6.6-24,19
	C139.8,77,116,124.7,116,124.7s30.7-40,34.7-35.7c4,4.3-5,19-5.3,26c-0.3,7,4,17.3,16.7,4.3s20.6-30.3,28.1-27.7
	c7.5,2.7,2.5,13,2.5,13s2.2-14.3-4.7-11.5s-26.2,26.7-15.8,27.5c10.3,0.8,22.1-16,22.1-16s-4.4,18.8,2.3,17.3s24.1-27,26.1-27.7
	c2-0.7,8.2-1.7,0.7,14.7s-8,18.8-8,18.8s18-24.5,25-23.2s-6.2,13.3-6.2,17s0.8,11.2,16,4s24.5-15.5,49.2-50
	c24.7-34.5,16.2-46.5,5.3-30.5c-10.8,16-25.5,59.7-31.2,70s-13.8,25.3-13.8,25.3s18.2-45.7,40.8-47.7s10.3,19,4.5,20.3
	s-10.3,4.5-26.5-1.3c0,0,10.2,0.7,19.3,17.7c9.2,17,24.3-9.5,32.7-14.7c8.3-5.2,19.7-17.3,15.8-20.3c-3.8-3-8.3-3.3-8.2,9.8
	c0.2,13.2,7.2,29.7-0.3,31.8c-7.5,2.2-14.3-3-18.2-8c0,0,13.7,23,45.2,3"/>
<path class="t__hat" fill="none" stroke="#000000" stroke-miterlimit="10" d="M158.3,15.7c0,0-13.2,15.5-70.5,23.8s-46.3,60-27.8,47.8
	s31.3-34.8,31.3-34.8"/>
<!--<path fill="none" stroke="#000000" stroke-miterlimit="10" d="M387.7,121.1c5.2-10.8,17.6-83.2,25.2-93"/>-->
<path class="expl__stroke" fill="none" stroke="#000000" stroke-miterlimit="10" d="M411.7,27.8c-5,11-15.4,83.7-22.8,93.6"/>
<path class="expl__dot" fill="none" stroke="#000000" stroke-miterlimit="10" d="M387.7,136.3c-3.1-11.6-0.5,7.5-1-4.9"/>
<path class="underline" fill="none" stroke="#000000" stroke-miterlimit="10" d="M28.2,172c44.3,8.1,322.7-13.5,364.8,3.6"/>
</svg>
